# xmcd
#
# Track frame offsets:
# 150
# 17071
# 29916
# 47021
# 66221
# 79884
# 95161
# 115599
# 128921
# 138936
# 149291
# 164839
# 175961
# 190599
#
# Disc length: 2664 seconds
#
#
# Revision: 0
# Processed by: cddbd v1.5.1PL2 Copyright (c) Steve Scherf et al.
# Submitted via: FreeRIP 2.92 
#
DISCID=cb0a660e
DTITLE=variados - O som dos blaks 2
DYEAR=1900
DGENRE=samba ROCK
TTITLE0=MEUS INIMIGOS
TTITLE1=SEGURA NEGA
TTITLE2=PENA VERDE - COM ROSA BEBELO
TTITLE3=GUERI - GUERI
TTITLE4=SE VOCÊ QUISER MAS SEM BRONQUEAR
TTITLE5=ZAMBA BEN
TTITLE6=TESOURÃO
TTITLE7=SI MANDA
TTITLE8=16 TONELADAS
TTITLE9=BRSIL, EU FICO
TTITLE10=MENINA CAROLINA
TTITLE11=OS GRILOS
TTITLE12=KRIOLA
TTITLE13=DOW BY THE RIVERSIDE
EXTD=
EXTT0=
EXTT1=
EXTT2=
EXTT3=
EXTT4=
EXTT5=
EXTT6=
EXTT7=
EXTT8=
EXTT9=
EXTT10=
EXTT11=
EXTT12=
EXTT13=
PLAYORDER=
